solid CATIA STL
  facet normal  0.000000e+000  0.000000e+000  1.000000e+000
    outer loop
      vertex  2.200000e+001  1.598721e-014  5.000000e+000
      vertex  2.200000e+001  2.567000e+001  5.000000e+000
      vertex  0.000000e+000  2.567000e+001  5.000000e+000
    endloop
  endfacet
  facet normal  0.000000e+000  0.000000e+000  1.000000e+000
    outer loop
      vertex  2.200000e+001 -2.567000e+001  5.000000e+000
      vertex  2.200000e+001  1.598721e-014  5.000000e+000
      vertex  0.000000e+000  2.567000e+001  5.000000e+000
    endloop
  endfacet
  facet normal  0.000000e+000  0.000000e+000  1.000000e+000
    outer loop
      vertex  2.200000e+001 -2.567000e+001  5.000000e+000
      vertex  0.000000e+000  2.567000e+001  5.000000e+000
      vertex  0.000000e+000  4.000000e+000  5.000000e+000
    endloop
  endfacet
  facet normal  0.000000e+000  0.000000e+000  1.000000e+000
    outer loop
      vertex  2.200000e+001 -2.567000e+001  5.000000e+000
      vertex  0.000000e+000  4.000000e+000  5.000000e+000
      vertex  0.000000e+000 -4.000000e+000  5.000000e+000
    endloop
  endfacet
  facet normal  0.000000e+000  0.000000e+000  1.000000e+000
    outer loop
      vertex  2.200000e+001 -2.567000e+001  5.000000e+000
      vertex  0.000000e+000 -4.000000e+000  5.000000e+000
      vertex  0.000000e+000 -2.567000e+001  5.000000e+000
    endloop
  endfacet
  facet normal  0.000000e+000  0.000000e+000  1.000000e+000
    outer loop
      vertex -3.800000e+001  4.000000e+000  5.000000e+000
      vertex -3.800000e+001 -4.000000e+000  5.000000e+000
      vertex  0.000000e+000  4.000000e+000  5.000000e+000
    endloop
  endfacet
  facet normal  0.000000e+000  0.000000e+000  1.000000e+000
    outer loop
      vertex  0.000000e+000  4.000000e+000  5.000000e+000
      vertex -3.800000e+001 -4.000000e+000  5.000000e+000
      vertex  0.000000e+000 -4.000000e+000  5.000000e+000
    endloop
  endfacet
  facet normal  0.000000e+000  0.000000e+000 -1.000000e+000
    outer loop
      vertex  2.200000e+001  0.000000e+000  0.000000e+000
      vertex  2.200000e+001 -2.967000e+001  0.000000e+000
      vertex  0.000000e+000 -2.967000e+001  0.000000e+000
    endloop
  endfacet
  facet normal  -0.000000e+000  0.000000e+000 -1.000000e+000
    outer loop
      vertex  2.200000e+001  2.967000e+001  0.000000e+000
      vertex  2.200000e+001  0.000000e+000  0.000000e+000
      vertex  0.000000e+000 -2.967000e+001  0.000000e+000
    endloop
  endfacet
  facet normal  0.000000e+000  0.000000e+000 -1.000000e+000
    outer loop
      vertex  2.200000e+001  2.967000e+001  0.000000e+000
      vertex  0.000000e+000 -2.967000e+001  0.000000e+000
      vertex  0.000000e+000 -4.000000e+000  0.000000e+000
    endloop
  endfacet
  facet normal  0.000000e+000  0.000000e+000 -1.000000e+000
    outer loop
      vertex  2.200000e+001  2.967000e+001  0.000000e+000
      vertex  0.000000e+000 -4.000000e+000  0.000000e+000
      vertex  0.000000e+000  4.000000e+000  0.000000e+000
    endloop
  endfacet
  facet normal  0.000000e+000  0.000000e+000 -1.000000e+000
    outer loop
      vertex  2.200000e+001  2.967000e+001  0.000000e+000
      vertex  0.000000e+000  4.000000e+000  0.000000e+000
      vertex  0.000000e+000  2.967000e+001  0.000000e+000
    endloop
  endfacet
  facet normal  0.000000e+000  0.000000e+000 -1.000000e+000
    outer loop
      vertex -4.300000e+001 -4.000000e+000  0.000000e+000
      vertex -4.300000e+001  4.000000e+000  0.000000e+000
      vertex  0.000000e+000 -4.000000e+000  0.000000e+000
    endloop
  endfacet
  facet normal  0.000000e+000  0.000000e+000 -1.000000e+000
    outer loop
      vertex  0.000000e+000 -4.000000e+000  0.000000e+000
      vertex -4.300000e+001  4.000000e+000  0.000000e+000
      vertex  0.000000e+000  4.000000e+000  0.000000e+000
    endloop
  endfacet
  facet normal  0.000000e+000  1.000000e+000  0.000000e+000
    outer loop
      vertex -4.300000e+001  4.000000e+000  0.000000e+000
      vertex -4.300000e+001  4.000000e+000  1.419973e+001
      vertex -4.000000e+001  4.000000e+000  1.220000e+001
    endloop
  endfacet
  facet normal  0.000000e+000  1.000000e+000  0.000000e+000
    outer loop
      vertex -4.300000e+001  4.000000e+000  0.000000e+000
      vertex -4.000000e+001  4.000000e+000  1.220000e+001
      vertex -4.000000e+001  4.000000e+000  1.000000e+001
    endloop
  endfacet
  facet normal  -0.000000e+000  1.000000e+000  0.000000e+000
    outer loop
      vertex -4.300000e+001  4.000000e+000  0.000000e+000
      vertex -4.000000e+001  4.000000e+000  1.000000e+001
      vertex -3.800000e+001  4.000000e+000  1.000000e+001
    endloop
  endfacet
  facet normal  0.000000e+000  1.000000e+000  0.000000e+000
    outer loop
      vertex -4.300000e+001  4.000000e+000  0.000000e+000
      vertex -3.800000e+001  4.000000e+000  1.000000e+001
      vertex -3.800000e+001  4.000000e+000  5.000000e+000
    endloop
  endfacet
  facet normal  -0.000000e+000  1.000000e+000  0.000000e+000
    outer loop
      vertex -4.300000e+001  4.000000e+000  0.000000e+000
      vertex -3.800000e+001  4.000000e+000  5.000000e+000
      vertex  0.000000e+000  4.000000e+000  5.000000e+000
    endloop
  endfacet
  facet normal  0.000000e+000  1.000000e+000  0.000000e+000
    outer loop
      vertex -4.300000e+001  4.000000e+000  0.000000e+000
      vertex  0.000000e+000  4.000000e+000  5.000000e+000
      vertex  0.000000e+000  4.000000e+000  0.000000e+000
    endloop
  endfacet
  facet normal  0.000000e+000  1.000000e+000  0.000000e+000
    outer loop
      vertex -3.900027e+001  4.000000e+000  1.319973e+001
      vertex -4.000000e+001  4.000000e+000  1.220000e+001
      vertex -3.900027e+001  4.000000e+000  1.419973e+001
    endloop
  endfacet
  facet normal  0.000000e+000  9.999999e-001  0.000000e+000
    outer loop
      vertex -3.900027e+001  4.000000e+000  1.419973e+001
      vertex -4.000000e+001  4.000000e+000  1.220000e+001
      vertex -4.300000e+001  4.000000e+000  1.419973e+001
    endloop
  endfacet
  facet normal  0.000000e+000 -1.000000e+000  0.000000e+000
    outer loop
      vertex -4.300000e+001 -4.000000e+000  0.000000e+000
      vertex  0.000000e+000 -4.000000e+000  0.000000e+000
      vertex  0.000000e+000 -4.000000e+000  5.000000e+000
    endloop
  endfacet
  facet normal  -0.000000e+000 -1.000000e+000  0.000000e+000
    outer loop
      vertex -4.300000e+001 -4.000000e+000  0.000000e+000
      vertex  0.000000e+000 -4.000000e+000  5.000000e+000
      vertex -3.800000e+001 -4.000000e+000  5.000000e+000
    endloop
  endfacet
  facet normal  -0.000000e+000 -1.000000e+000  0.000000e+000
    outer loop
      vertex -4.300000e+001 -4.000000e+000  0.000000e+000
      vertex -3.800000e+001 -4.000000e+000  5.000000e+000
      vertex -3.800000e+001 -4.000000e+000  1.000000e+001
    endloop
  endfacet
  facet normal  -0.000000e+000 -1.000000e+000  0.000000e+000
    outer loop
      vertex -4.300000e+001 -4.000000e+000  0.000000e+000
      vertex -3.800000e+001 -4.000000e+000  1.000000e+001
      vertex -4.000000e+001 -4.000000e+000  1.000000e+001
    endloop
  endfacet
  facet normal  -0.000000e+000 -1.000000e+000  0.000000e+000
    outer loop
      vertex -4.300000e+001 -4.000000e+000  0.000000e+000
      vertex -4.000000e+001 -4.000000e+000  1.000000e+001
      vertex -4.000000e+001 -4.000000e+000  1.220000e+001
    endloop
  endfacet
  facet normal  -0.000000e+000 -1.000000e+000  0.000000e+000
    outer loop
      vertex -4.300000e+001 -4.000000e+000  0.000000e+000
      vertex -4.000000e+001 -4.000000e+000  1.220000e+001
      vertex -4.300000e+001 -4.000000e+000  1.419973e+001
    endloop
  endfacet
  facet normal  0.000000e+000 -1.000000e+000  -0.000000e+000
    outer loop
      vertex -3.900027e+001 -4.000000e+000  1.319973e+001
      vertex -3.900027e+001 -4.000000e+000  1.419973e+001
      vertex -4.000000e+001 -4.000000e+000  1.220000e+001
    endloop
  endfacet
  facet normal  0.000000e+000 -9.999999e-001  0.000000e+000
    outer loop
      vertex -4.000000e+001 -4.000000e+000  1.220000e+001
      vertex -3.900027e+001 -4.000000e+000  1.419973e+001
      vertex -4.300000e+001 -4.000000e+000  1.419973e+001
    endloop
  endfacet
  facet normal -1.000000e+000  0.000000e+000  -0.000000e+000
    outer loop
      vertex  0.000000e+000 -2.967000e+001  0.000000e+000
      vertex  0.000000e+000 -2.667000e+001  1.220000e+001
      vertex  0.000000e+000 -2.667000e+001  1.000000e+001
    endloop
  endfacet
  facet normal -1.000000e+000  0.000000e+000  -0.000000e+000
    outer loop
      vertex  0.000000e+000 -2.967000e+001  0.000000e+000
      vertex  0.000000e+000 -2.667000e+001  1.000000e+001
      vertex  0.000000e+000 -2.567000e+001  1.000000e+001
    endloop
  endfacet
  facet normal -1.000000e+000  0.000000e+000  -0.000000e+000
    outer loop
      vertex  0.000000e+000 -2.967000e+001  0.000000e+000
      vertex  0.000000e+000 -2.567000e+001  1.000000e+001
      vertex  0.000000e+000 -2.567000e+001  5.000000e+000
    endloop
  endfacet
  facet normal -1.000000e+000  0.000000e+000  -0.000000e+000
    outer loop
      vertex  0.000000e+000 -2.967000e+001  0.000000e+000
      vertex  0.000000e+000 -2.567000e+001  5.000000e+000
      vertex  0.000000e+000 -4.000000e+000  5.000000e+000
    endloop
  endfacet
  facet normal -1.000000e+000  0.000000e+000  -0.000000e+000
    outer loop
      vertex  0.000000e+000 -2.967000e+001  0.000000e+000
      vertex  0.000000e+000 -4.000000e+000  5.000000e+000
      vertex  0.000000e+000 -4.000000e+000  0.000000e+000
    endloop
  endfacet
  facet normal -1.000000e+000  -0.000000e+000  -0.000000e+000
    outer loop
      vertex  0.000000e+000 -2.967000e+001  1.420000e+001
      vertex  0.000000e+000 -2.567000e+001  1.420000e+001
      vertex  0.000000e+000 -2.567000e+001  1.320000e+001
    endloop
  endfacet
  facet normal -1.000000e+000  -0.000000e+000  0.000000e+000
    outer loop
      vertex  0.000000e+000 -2.967000e+001  1.420000e+001
      vertex  0.000000e+000 -2.567000e+001  1.320000e+001
      vertex  0.000000e+000 -2.667000e+001  1.220000e+001
    endloop
  endfacet
  facet normal -1.000000e+000  -0.000000e+000  0.000000e+000
    outer loop
      vertex  0.000000e+000 -2.967000e+001  1.420000e+001
      vertex  0.000000e+000 -2.667000e+001  1.220000e+001
      vertex  0.000000e+000 -2.967000e+001  0.000000e+000
    endloop
  endfacet
  facet normal -1.000000e+000  0.000000e+000  0.000000e+000
    outer loop
      vertex  0.000000e+000  2.967000e+001  0.000000e+000
      vertex  0.000000e+000  4.000000e+000  0.000000e+000
      vertex  0.000000e+000  4.000000e+000  5.000000e+000
    endloop
  endfacet
  facet normal -1.000000e+000  0.000000e+000  0.000000e+000
    outer loop
      vertex  0.000000e+000  2.967000e+001  0.000000e+000
      vertex  0.000000e+000  4.000000e+000  5.000000e+000
      vertex  0.000000e+000  2.567000e+001  5.000000e+000
    endloop
  endfacet
  facet normal -1.000000e+000  0.000000e+000  0.000000e+000
    outer loop
      vertex  0.000000e+000  2.967000e+001  0.000000e+000
      vertex  0.000000e+000  2.567000e+001  5.000000e+000
      vertex  0.000000e+000  2.567000e+001  1.000000e+001
    endloop
  endfacet
  facet normal -1.000000e+000  0.000000e+000  0.000000e+000
    outer loop
      vertex  0.000000e+000  2.967000e+001  0.000000e+000
      vertex  0.000000e+000  2.567000e+001  1.000000e+001
      vertex  0.000000e+000  2.667000e+001  1.000000e+001
    endloop
  endfacet
  facet normal -1.000000e+000  0.000000e+000  0.000000e+000
    outer loop
      vertex  0.000000e+000  2.967000e+001  0.000000e+000
      vertex  0.000000e+000  2.667000e+001  1.000000e+001
      vertex  0.000000e+000  2.667000e+001  1.220000e+001
    endloop
  endfacet
  facet normal -1.000000e+000  0.000000e+000  0.000000e+000
    outer loop
      vertex  0.000000e+000  2.967000e+001  0.000000e+000
      vertex  0.000000e+000  2.667000e+001  1.220000e+001
      vertex  0.000000e+000  2.967000e+001  1.420000e+001
    endloop
  endfacet
  facet normal -1.000000e+000  0.000000e+000  0.000000e+000
    outer loop
      vertex  0.000000e+000  2.567000e+001  1.320000e+001
      vertex  0.000000e+000  2.567000e+001  1.420000e+001
      vertex  0.000000e+000  2.667000e+001  1.220000e+001
    endloop
  endfacet
  facet normal -1.000000e+000  0.000000e+000  0.000000e+000
    outer loop
      vertex  0.000000e+000  2.667000e+001  1.220000e+001
      vertex  0.000000e+000  2.567000e+001  1.420000e+001
      vertex  0.000000e+000  2.967000e+001  1.420000e+001
    endloop
  endfacet
  facet normal  1.000000e+000  0.000000e+000  0.000000e+000
    outer loop
      vertex -3.800000e+001 -4.000000e+000  1.000000e+001
      vertex -3.800000e+001 -4.000000e+000  5.000000e+000
      vertex -3.800000e+001  4.000000e+000  1.000000e+001
    endloop
  endfacet
  facet normal  1.000000e+000  0.000000e+000  0.000000e+000
    outer loop
      vertex -3.800000e+001  4.000000e+000  1.000000e+001
      vertex -3.800000e+001 -4.000000e+000  5.000000e+000
      vertex -3.800000e+001  4.000000e+000  5.000000e+000
    endloop
  endfacet
  facet normal  0.000000e+000  0.000000e+000  1.000000e+000
    outer loop
      vertex -4.000000e+001  4.000000e+000  1.000000e+001
      vertex -4.000000e+001 -4.000000e+000  1.000000e+001
      vertex -3.800000e+001  4.000000e+000  1.000000e+001
    endloop
  endfacet
  facet normal  0.000000e+000  0.000000e+000  1.000000e+000
    outer loop
      vertex -3.800000e+001  4.000000e+000  1.000000e+001
      vertex -4.000000e+001 -4.000000e+000  1.000000e+001
      vertex -3.800000e+001 -4.000000e+000  1.000000e+001
    endloop
  endfacet
  facet normal  1.000000e+000  0.000000e+000  0.000000e+000
    outer loop
      vertex -4.000000e+001 -4.000000e+000  1.220000e+001
      vertex -4.000000e+001 -4.000000e+000  1.000000e+001
      vertex -4.000000e+001  4.000000e+000  1.220000e+001
    endloop
  endfacet
  facet normal  1.000000e+000  0.000000e+000  0.000000e+000
    outer loop
      vertex -4.000000e+001  4.000000e+000  1.220000e+001
      vertex -4.000000e+001 -4.000000e+000  1.000000e+001
      vertex -4.000000e+001  4.000000e+000  1.000000e+001
    endloop
  endfacet
  facet normal  7.071068e-001  0.000000e+000 -7.071068e-001
    outer loop
      vertex -3.900027e+001 -4.000000e+000  1.319973e+001
      vertex -4.000000e+001 -4.000000e+000  1.220000e+001
      vertex -3.900027e+001  4.000000e+000  1.319973e+001
    endloop
  endfacet
  facet normal  7.071068e-001  0.000000e+000 -7.071068e-001
    outer loop
      vertex -3.900027e+001  4.000000e+000  1.319973e+001
      vertex -4.000000e+001 -4.000000e+000  1.220000e+001
      vertex -4.000000e+001  4.000000e+000  1.220000e+001
    endloop
  endfacet
  facet normal  1.000000e+000  0.000000e+000  0.000000e+000
    outer loop
      vertex -3.900027e+001 -4.000000e+000  1.419973e+001
      vertex -3.900027e+001 -4.000000e+000  1.319973e+001
      vertex -3.900027e+001  4.000000e+000  1.419973e+001
    endloop
  endfacet
  facet normal  1.000000e+000  0.000000e+000  0.000000e+000
    outer loop
      vertex -3.900027e+001  4.000000e+000  1.419973e+001
      vertex -3.900027e+001 -4.000000e+000  1.319973e+001
      vertex -3.900027e+001  4.000000e+000  1.319973e+001
    endloop
  endfacet
  facet normal  0.000000e+000  0.000000e+000  1.000000e+000
    outer loop
      vertex -4.300000e+001 -4.000000e+000  1.419973e+001
      vertex -3.900027e+001 -4.000000e+000  1.419973e+001
      vertex -4.300000e+001  4.000000e+000  1.419973e+001
    endloop
  endfacet
  facet normal  -0.000000e+000  0.000000e+000  1.000000e+000
    outer loop
      vertex -4.300000e+001  4.000000e+000  1.419973e+001
      vertex -3.900027e+001 -4.000000e+000  1.419973e+001
      vertex -3.900027e+001  4.000000e+000  1.419973e+001
    endloop
  endfacet
  facet normal -1.000000e+000  0.000000e+000  0.000000e+000
    outer loop
      vertex -4.300000e+001  4.000000e+000  0.000000e+000
      vertex -4.300000e+001 -4.000000e+000  0.000000e+000
      vertex -4.300000e+001  4.000000e+000  1.419973e+001
    endloop
  endfacet
  facet normal -1.000000e+000  -0.000000e+000  0.000000e+000
    outer loop
      vertex -4.300000e+001  4.000000e+000  1.419973e+001
      vertex -4.300000e+001 -4.000000e+000  0.000000e+000
      vertex -4.300000e+001 -4.000000e+000  1.419973e+001
    endloop
  endfacet
  facet normal  1.000000e+000  0.000000e+000  0.000000e+000
    outer loop
      vertex  2.200000e+001  2.967000e+001  0.000000e+000
      vertex  2.200000e+001  2.967000e+001  1.420000e+001
      vertex  2.200000e+001  2.667000e+001  1.220000e+001
    endloop
  endfacet
  facet normal  1.000000e+000  0.000000e+000  0.000000e+000
    outer loop
      vertex  2.200000e+001  2.967000e+001  0.000000e+000
      vertex  2.200000e+001  2.667000e+001  1.220000e+001
      vertex  2.200000e+001  2.667000e+001  1.000000e+001
    endloop
  endfacet
  facet normal  1.000000e+000  0.000000e+000  0.000000e+000
    outer loop
      vertex  2.200000e+001  2.967000e+001  0.000000e+000
      vertex  2.200000e+001  2.667000e+001  1.000000e+001
      vertex  2.200000e+001  2.567000e+001  1.000000e+001
    endloop
  endfacet
  facet normal  1.000000e+000  0.000000e+000  0.000000e+000
    outer loop
      vertex  2.200000e+001  2.967000e+001  0.000000e+000
      vertex  2.200000e+001  2.567000e+001  1.000000e+001
      vertex  2.200000e+001  2.567000e+001  5.000000e+000
    endloop
  endfacet
  facet normal  1.000000e+000  0.000000e+000  0.000000e+000
    outer loop
      vertex  2.200000e+001  2.967000e+001  0.000000e+000
      vertex  2.200000e+001  2.567000e+001  5.000000e+000
      vertex  2.200000e+001  0.000000e+000  0.000000e+000
    endloop
  endfacet
  facet normal  1.000000e+000  0.000000e+000  -0.000000e+000
    outer loop
      vertex  2.200000e+001 -2.967000e+001  0.000000e+000
      vertex  2.200000e+001  0.000000e+000  0.000000e+000
      vertex  2.200000e+001  2.567000e+001  5.000000e+000
    endloop
  endfacet
  facet normal  1.000000e+000  0.000000e+000  0.000000e+000
    outer loop
      vertex  2.200000e+001 -2.967000e+001  0.000000e+000
      vertex  2.200000e+001  2.567000e+001  5.000000e+000
      vertex  2.200000e+001  1.598721e-014  5.000000e+000
    endloop
  endfacet
  facet normal  1.000000e+000  0.000000e+000  0.000000e+000
    outer loop
      vertex  2.200000e+001 -2.967000e+001  0.000000e+000
      vertex  2.200000e+001  1.598721e-014  5.000000e+000
      vertex  2.200000e+001 -2.567000e+001  5.000000e+000
    endloop
  endfacet
  facet normal  1.000000e+000  0.000000e+000  -0.000000e+000
    outer loop
      vertex  2.200000e+001 -2.967000e+001  0.000000e+000
      vertex  2.200000e+001 -2.567000e+001  5.000000e+000
      vertex  2.200000e+001 -2.567000e+001  1.000000e+001
    endloop
  endfacet
  facet normal  1.000000e+000  0.000000e+000  0.000000e+000
    outer loop
      vertex  2.200000e+001 -2.967000e+001  0.000000e+000
      vertex  2.200000e+001 -2.567000e+001  1.000000e+001
      vertex  2.200000e+001 -2.667000e+001  1.000000e+001
    endloop
  endfacet
  facet normal  1.000000e+000  0.000000e+000  -0.000000e+000
    outer loop
      vertex  2.200000e+001 -2.967000e+001  0.000000e+000
      vertex  2.200000e+001 -2.667000e+001  1.000000e+001
      vertex  2.200000e+001 -2.667000e+001  1.220000e+001
    endloop
  endfacet
  facet normal  1.000000e+000  0.000000e+000  0.000000e+000
    outer loop
      vertex  2.200000e+001 -2.967000e+001  1.420000e+001
      vertex  2.200000e+001 -2.967000e+001  0.000000e+000
      vertex  2.200000e+001 -2.667000e+001  1.220000e+001
    endloop
  endfacet
  facet normal  1.000000e+000  0.000000e+000  -0.000000e+000
    outer loop
      vertex  2.200000e+001 -2.967000e+001  1.420000e+001
      vertex  2.200000e+001 -2.667000e+001  1.220000e+001
      vertex  2.200000e+001 -2.567000e+001  1.320000e+001
    endloop
  endfacet
  facet normal  1.000000e+000  0.000000e+000  -0.000000e+000
    outer loop
      vertex  2.200000e+001 -2.967000e+001  1.420000e+001
      vertex  2.200000e+001 -2.567000e+001  1.320000e+001
      vertex  2.200000e+001 -2.567000e+001  1.420000e+001
    endloop
  endfacet
  facet normal  1.000000e+000  0.000000e+000  0.000000e+000
    outer loop
      vertex  2.200000e+001  2.567000e+001  1.320000e+001
      vertex  2.200000e+001  2.667000e+001  1.220000e+001
      vertex  2.200000e+001  2.567000e+001  1.420000e+001
    endloop
  endfacet
  facet normal  1.000000e+000  -0.000000e+000  0.000000e+000
    outer loop
      vertex  2.200000e+001  2.567000e+001  1.420000e+001
      vertex  2.200000e+001  2.667000e+001  1.220000e+001
      vertex  2.200000e+001  2.967000e+001  1.420000e+001
    endloop
  endfacet
  facet normal  0.000000e+000 -1.000000e+000  0.000000e+000
    outer loop
      vertex  0.000000e+000 -2.967000e+001  0.000000e+000
      vertex  2.200000e+001 -2.967000e+001  0.000000e+000
      vertex  0.000000e+000 -2.967000e+001  1.420000e+001
    endloop
  endfacet
  facet normal  0.000000e+000 -1.000000e+000  0.000000e+000
    outer loop
      vertex  0.000000e+000 -2.967000e+001  1.420000e+001
      vertex  2.200000e+001 -2.967000e+001  0.000000e+000
      vertex  2.200000e+001 -2.967000e+001  1.420000e+001
    endloop
  endfacet
  facet normal  -0.000000e+000  0.000000e+000  1.000000e+000
    outer loop
      vertex  2.200000e+001 -2.567000e+001  1.420000e+001
      vertex  0.000000e+000 -2.567000e+001  1.420000e+001
      vertex  2.200000e+001 -2.967000e+001  1.420000e+001
    endloop
  endfacet
  facet normal  0.000000e+000  0.000000e+000  1.000000e+000
    outer loop
      vertex  2.200000e+001 -2.967000e+001  1.420000e+001
      vertex  0.000000e+000 -2.567000e+001  1.420000e+001
      vertex  0.000000e+000 -2.967000e+001  1.420000e+001
    endloop
  endfacet
  facet normal  0.000000e+000  1.000000e+000  0.000000e+000
    outer loop
      vertex  0.000000e+000 -2.567000e+001  1.420000e+001
      vertex  2.200000e+001 -2.567000e+001  1.420000e+001
      vertex  0.000000e+000 -2.567000e+001  1.320000e+001
    endloop
  endfacet
  facet normal  0.000000e+000  1.000000e+000  0.000000e+000
    outer loop
      vertex  0.000000e+000 -2.567000e+001  1.320000e+001
      vertex  2.200000e+001 -2.567000e+001  1.420000e+001
      vertex  2.200000e+001 -2.567000e+001  1.320000e+001
    endloop
  endfacet
  facet normal  0.000000e+000  7.071068e-001 -7.071068e-001
    outer loop
      vertex  0.000000e+000 -2.567000e+001  1.320000e+001
      vertex  2.200000e+001 -2.567000e+001  1.320000e+001
      vertex  0.000000e+000 -2.667000e+001  1.220000e+001
    endloop
  endfacet
  facet normal  0.000000e+000  7.071068e-001 -7.071068e-001
    outer loop
      vertex  0.000000e+000 -2.667000e+001  1.220000e+001
      vertex  2.200000e+001 -2.567000e+001  1.320000e+001
      vertex  2.200000e+001 -2.667000e+001  1.220000e+001
    endloop
  endfacet
  facet normal  0.000000e+000  1.000000e+000  0.000000e+000
    outer loop
      vertex  0.000000e+000 -2.667000e+001  1.220000e+001
      vertex  2.200000e+001 -2.667000e+001  1.220000e+001
      vertex  0.000000e+000 -2.667000e+001  1.000000e+001
    endloop
  endfacet
  facet normal  0.000000e+000  1.000000e+000  0.000000e+000
    outer loop
      vertex  0.000000e+000 -2.667000e+001  1.000000e+001
      vertex  2.200000e+001 -2.667000e+001  1.220000e+001
      vertex  2.200000e+001 -2.667000e+001  1.000000e+001
    endloop
  endfacet
  facet normal  0.000000e+000  0.000000e+000  1.000000e+000
    outer loop
      vertex  0.000000e+000 -2.567000e+001  1.000000e+001
      vertex  0.000000e+000 -2.667000e+001  1.000000e+001
      vertex  2.200000e+001 -2.567000e+001  1.000000e+001
    endloop
  endfacet
  facet normal  0.000000e+000  0.000000e+000  1.000000e+000
    outer loop
      vertex  2.200000e+001 -2.567000e+001  1.000000e+001
      vertex  0.000000e+000 -2.667000e+001  1.000000e+001
      vertex  2.200000e+001 -2.667000e+001  1.000000e+001
    endloop
  endfacet
  facet normal  0.000000e+000  9.999999e-001  0.000000e+000
    outer loop
      vertex  0.000000e+000 -2.567000e+001  1.000000e+001
      vertex  2.200000e+001 -2.567000e+001  1.000000e+001
      vertex  0.000000e+000 -2.567000e+001  5.000000e+000
    endloop
  endfacet
  facet normal  0.000000e+000  9.999999e-001  0.000000e+000
    outer loop
      vertex  0.000000e+000 -2.567000e+001  5.000000e+000
      vertex  2.200000e+001 -2.567000e+001  1.000000e+001
      vertex  2.200000e+001 -2.567000e+001  5.000000e+000
    endloop
  endfacet
  facet normal  0.000000e+000 -9.999999e-001  0.000000e+000
    outer loop
      vertex  0.000000e+000  2.567000e+001  1.000000e+001
      vertex  0.000000e+000  2.567000e+001  5.000000e+000
      vertex  2.200000e+001  2.567000e+001  1.000000e+001
    endloop
  endfacet
  facet normal  0.000000e+000 -9.999999e-001  -0.000000e+000
    outer loop
      vertex  2.200000e+001  2.567000e+001  1.000000e+001
      vertex  0.000000e+000  2.567000e+001  5.000000e+000
      vertex  2.200000e+001  2.567000e+001  5.000000e+000
    endloop
  endfacet
  facet normal  0.000000e+000  0.000000e+000  1.000000e+000
    outer loop
      vertex  0.000000e+000  2.667000e+001  1.000000e+001
      vertex  0.000000e+000  2.567000e+001  1.000000e+001
      vertex  2.200000e+001  2.667000e+001  1.000000e+001
    endloop
  endfacet
  facet normal  0.000000e+000  0.000000e+000  1.000000e+000
    outer loop
      vertex  2.200000e+001  2.667000e+001  1.000000e+001
      vertex  0.000000e+000  2.567000e+001  1.000000e+001
      vertex  2.200000e+001  2.567000e+001  1.000000e+001
    endloop
  endfacet
  facet normal  0.000000e+000 -1.000000e+000  0.000000e+000
    outer loop
      vertex  0.000000e+000  2.667000e+001  1.220000e+001
      vertex  0.000000e+000  2.667000e+001  1.000000e+001
      vertex  2.200000e+001  2.667000e+001  1.220000e+001
    endloop
  endfacet
  facet normal  0.000000e+000 -1.000000e+000  -0.000000e+000
    outer loop
      vertex  2.200000e+001  2.667000e+001  1.220000e+001
      vertex  0.000000e+000  2.667000e+001  1.000000e+001
      vertex  2.200000e+001  2.667000e+001  1.000000e+001
    endloop
  endfacet
  facet normal  0.000000e+000 -7.071068e-001 -7.071068e-001
    outer loop
      vertex  0.000000e+000  2.567000e+001  1.320000e+001
      vertex  0.000000e+000  2.667000e+001  1.220000e+001
      vertex  2.200000e+001  2.567000e+001  1.320000e+001
    endloop
  endfacet
  facet normal  0.000000e+000 -7.071068e-001 -7.071068e-001
    outer loop
      vertex  2.200000e+001  2.567000e+001  1.320000e+001
      vertex  0.000000e+000  2.667000e+001  1.220000e+001
      vertex  2.200000e+001  2.667000e+001  1.220000e+001
    endloop
  endfacet
  facet normal  0.000000e+000 -1.000000e+000  0.000000e+000
    outer loop
      vertex  0.000000e+000  2.567000e+001  1.420000e+001
      vertex  0.000000e+000  2.567000e+001  1.320000e+001
      vertex  2.200000e+001  2.567000e+001  1.420000e+001
    endloop
  endfacet
  facet normal  0.000000e+000 -1.000000e+000  -0.000000e+000
    outer loop
      vertex  2.200000e+001  2.567000e+001  1.420000e+001
      vertex  0.000000e+000  2.567000e+001  1.320000e+001
      vertex  2.200000e+001  2.567000e+001  1.320000e+001
    endloop
  endfacet
  facet normal  -0.000000e+000  0.000000e+000  1.000000e+000
    outer loop
      vertex  2.200000e+001  2.967000e+001  1.420000e+001
      vertex  0.000000e+000  2.967000e+001  1.420000e+001
      vertex  2.200000e+001  2.567000e+001  1.420000e+001
    endloop
  endfacet
  facet normal  0.000000e+000  0.000000e+000  1.000000e+000
    outer loop
      vertex  2.200000e+001  2.567000e+001  1.420000e+001
      vertex  0.000000e+000  2.967000e+001  1.420000e+001
      vertex  0.000000e+000  2.567000e+001  1.420000e+001
    endloop
  endfacet
  facet normal  0.000000e+000  1.000000e+000  0.000000e+000
    outer loop
      vertex  0.000000e+000  2.967000e+001  0.000000e+000
      vertex  0.000000e+000  2.967000e+001  1.420000e+001
      vertex  2.200000e+001  2.967000e+001  0.000000e+000
    endloop
  endfacet
  facet normal  0.000000e+000  1.000000e+000  -0.000000e+000
    outer loop
      vertex  2.200000e+001  2.967000e+001  0.000000e+000
      vertex  0.000000e+000  2.967000e+001  1.420000e+001
      vertex  2.200000e+001  2.967000e+001  1.420000e+001
    endloop
  endfacet
endsolid CATIA STL
